<svg xmlns="http://www.w3.org/2000/svg" viewBox="0 0 187.66 65.08"><defs><style>.cls-1{fill:#d5d5d5;}.cls-2,.cls-5{fill:none;stroke:#707070;}.cls-2{stroke-width:2px;}.cls-3{fill:#fff;}.cls-4{fill:#707070;}.cls-6{isolation:isolate;}</style></defs><g id="Layer_2" data-name="Layer 2"><g id="Layer_1-2" data-name="Layer 1"><g id="Add_Remove" data-name="Add Remove"><g id="Rectangle_2100" data-name="Rectangle 2100"><path class="cls-1" d="M32.54,0H65.08V65.08H32.54A32.54,32.54,0,0,1,0,32.54H0A32.54,32.54,0,0,1,32.54,0Z"/><path class="cls-2" d="M32.54,1.52H62.27a1.29,1.29,0,0,1,1.29,1.29h0V62.27a1.29,1.29,0,0,1-1.29,1.29H32.54a31,31,0,0,1-31-31h0A31,31,0,0,1,32.54,1.52Z"/></g><g id="Rectangle_2101" data-name="Rectangle 2101"><rect class="cls-3" x="62.05" width="63.56" height="65.08"/><rect class="cls-2" x="63.56" y="1.52" width="60.54" height="62.05"/></g><g id="Rectangle_2102" data-name="Rectangle 2102"><path class="cls-1" d="M155.12,65.08H122.58V0h32.54a32.54,32.54,0,0,1,32.54,32.54h0A32.54,32.54,0,0,1,155.12,65.08Z"/><path class="cls-2" d="M155.12,63.57H125.39a1.29,1.29,0,0,1-1.29-1.29h0V2.81a1.29,1.29,0,0,1,1.29-1.29h29.73a31,31,0,0,1,31,31h0A31,31,0,0,1,155.12,63.57Z"/></g><g id="Rectangle_2103" data-name="Rectangle 2103"><rect class="cls-4" x="18.16" y="30.27" width="28.75" height="4.54"/><rect class="cls-5" x="18.92" y="31.03" width="27.24" height="3.03"/></g><g id="Rectangle_2104" data-name="Rectangle 2104"><rect class="cls-4" x="139.23" y="30.27" width="28.75" height="4.54"/><rect class="cls-5" x="139.99" y="31.03" width="27.24" height="3.03"/></g><g id="Rectangle_2105" data-name="Rectangle 2105"><rect class="cls-4" x="151.34" y="18.17" width="4.54" height="28.75"/><rect class="cls-5" x="152.09" y="18.92" width="3.03" height="27.24"/></g><g class="cls-6"><path d="M95.82,46.92h-3V27.67c0-1.6,0-3.12.15-4.54q-.39.39-.87.81t-4.4,3.6l-1.63-2.11,7.15-5.52h2.59Z"/></g></g></g></g></svg>