<svg xmlns="http://www.w3.org/2000/svg" width="103.36mm" height="135.76mm" viewBox="0 0 292.98 384.83">
  <defs>
    <style>
      .cls-1 {
        fill: #1d1d1b;
      }

      .cls-2 {
        fill: none;
        stroke: #fff;
        stroke-miterlimit: 10;
        stroke-width: 6px;
      }
    </style>
  </defs>
  <g id="Lager_2" data-name="Lager 2">
    <g id="Lager_1-2" data-name="Lager 1">
      <path class="cls-1" d="M146.49,0A146.49,146.49,0,0,0,32.19,238.12c.31.52.64,1,1,1.54l99.35,138a17.2,17.2,0,0,0,27.91,0l99.35-138c.37-.52.71-1,1-1.58A146.49,146.49,0,0,0,146.49,0Zm0,29.6A116.9,116.9,0,1,1,29.61,146.49,116.89,116.89,0,0,1,146.49,29.6Z"/>
      <polygon class="cls-1" points="211.2 183.84 211.2 109.13 146.5 71.77 81.79 109.13 81.79 183.84 146.5 221.2 211.2 183.84"/>
      <line class="cls-2" x1="81.79" y1="109.13" x2="146.49" y2="146.49"/>
      <line class="cls-2" x1="211.2" y1="109.13" x2="146.49" y2="146.49"/>
      <line class="cls-2" x1="146.49" y1="221.2" x2="146.49" y2="146.49"/>
    </g>
  </g>
</svg>
