<svg xmlns="http://www.w3.org/2000/svg" viewBox="0 0 42.71 42.71"><defs><style>.cls-1{fill:#fff;}.cls-2{fill:#1d1d1b;}</style></defs><g id="Layer_2" data-name="Layer 2"><g id="Layer_1-2" data-name="Layer 1"><circle class="cls-1" cx="21.36" cy="21.36" r="21.36"/><path id="YouTube" class="cls-2" d="M15.89,8.56,14.16,12,12.43,8.56H10.22L13.34,14h0v4.18H15V14h0L18.1,8.56Zm4.67,3.2a.82.82,0,0,1,.8.8v3.2a.81.81,0,0,1-1.61,0v-3.2A.81.81,0,0,1,20.56,11.76Zm0-1.61a2.42,2.42,0,0,0-2.41,2.41v3.2a2.41,2.41,0,0,0,4.81.09V12.56a2.41,2.41,0,0,0-2.41-2.4Zm7.2,0v6.31c-.7.58-1.61.93-1.61-1.14V10.16h-1.6v5.48h0c0,1.33.3,3.71,3.2,1.77v.75h1.6v-8H27.76Zm2.4,16a.8.8,0,0,0-.8.8v.8H31V27a.8.8,0,0,0-.8-.8ZM23,27v4.2c.54.54,1.6.6,1.6-.2V27.21c0-.8-.8-1.05-1.6-.25ZM34,23.09a3.33,3.33,0,0,0-3.28-3.2c-1.74-.09-5.73-.13-9.24-.13s-7.78,0-9.53.13a3.32,3.32,0,0,0-3.27,3.2c-.1,1.88-.16,2.56-.16,3.5s.06,2.35.16,4.23A3.32,3.32,0,0,0,12,34c1.75.09,6,.13,9.53.13s7.5,0,9.24-.13A3.33,3.33,0,0,0,34,30.82c.08-1.57.13-3,.13-4.23S34.11,24.66,34,23.09ZM13.36,32.56H11.75v-8h-1.6V23H15v1.61H13.36Zm6.4,0H18.15v-.75c-3,1.71-3.17.06-3.2-1.27h0V26.16h1.61v4.41c0,1,.9.87,1.6.29v-4.7h1.6Zm6.4-1.62c0,1.67-1.72,2.16-3.2.86v.76H21.35V23H23v2.6c1.6-1.6,3.2-1,3.2.6Zm6.4-3.18v.8h-3.2v1.6a.8.8,0,0,0,1.6,0v-.8h1.6v.8a2.4,2.4,0,0,1-4.8.09V27a2.4,2.4,0,1,1,4.8-.09v.89Z"/></g></g></svg>