<?xml version="1.0" encoding="utf-8"?>
<!-- Generator: Adobe Illustrator 25.2.1, SVG Export Plug-In . SVG Version: 6.00 Build 0)  -->
<svg version="1.1" id="Layer_1" xmlns="http://www.w3.org/2000/svg" xmlns:xlink="http://www.w3.org/1999/xlink" x="0px" y="0px"
	 width="283.46px" height="283.46px" viewBox="0 0 283.46 283.46" enable-background="new 0 0 283.46 283.46" xml:space="preserve">
<g id="Add_Remove" transform="translate(-1278 -433)">
	<g id="Rectangle_2100" transform="translate(1278 433)">
		<path fill="#D5D5D5" d="M80.44,109.19h32.54l0,0v65.08l0,0H80.44c-17.97,0-32.54-14.57-32.54-32.54l0,0
			C47.9,123.76,62.47,109.19,80.44,109.19z"/>
		<path fill="none" stroke="#707070" stroke-width="2" d="M80.44,110.71h29.73c0.71,0,1.29,0.58,1.29,1.29l0,0v59.46
			c0,0.71-0.58,1.29-1.29,1.29l0,0H80.44c-17.13,0-31.02-13.89-31.02-31.02l0,0C49.42,124.6,63.31,110.71,80.44,110.71z"/>
	</g>
	<g id="Rectangle_2101" transform="translate(1319 433)">
		<rect x="68.95" y="109.19" fill="#FFFFFF" width="63.56" height="65.08"/>
		<rect x="70.46" y="110.71" fill="none" stroke="#707070" stroke-width="2" width="60.54" height="62.05"/>
	</g>
	<g id="Rectangle_2102" transform="translate(1402 476) rotate(180)">
		<path fill="#D5D5D5" d="M-79.02-131.27h32.54l0,0v65.08l0,0h-32.54c-17.97,0-32.54-14.57-32.54-32.54l0,0
			C-111.56-116.7-97-131.27-79.02-131.27z"/>
		<path fill="none" stroke="#707070" stroke-width="2" d="M-79.02-129.76h29.73c0.71,0,1.29,0.58,1.29,1.29l0,0V-69
			c0,0.71-0.58,1.29-1.29,1.29l0,0h-29.73c-17.13,0-31.02-13.89-31.02-31.02l0,0C-110.05-115.87-96.16-129.76-79.02-129.76z"/>
	</g>
	<g id="Rectangle_2103" transform="translate(1290 453)">
		<rect x="54.06" y="119.46" fill="#707070" width="28.75" height="4.54"/>
		<rect x="54.82" y="120.22" fill="none" stroke="#707070" width="27.24" height="3.03"/>
	</g>
	<g id="Rectangle_2104" transform="translate(1370 453)">
		<rect x="95.13" y="119.46" fill="#707070" width="28.75" height="4.54"/>
		<rect x="95.89" y="120.22" fill="none" stroke="#707070" width="27.24" height="3.03"/>
	</g>
	<g id="Rectangle_2105" transform="translate(1381 445) rotate(90)">
		
			<rect x="127.46" y="-112.89" transform="matrix(2.535182e-06 1 -1 2.535182e-06 31.2205 -228.2435)" fill="#707070" width="4.54" height="28.75"/>
		
			<rect x="128.22" y="-112.13" transform="matrix(2.535182e-06 1 -1 2.535182e-06 31.2205 -228.2435)" fill="none" stroke="#707070" width="3.03" height="27.24"/>
	</g>
	<g enable-background="new    ">
		<path d="M1421.72,589.11h-2.99v-19.25c0-1.6,0.05-3.12,0.15-4.54c-0.26,0.26-0.55,0.53-0.87,0.81c-0.32,0.28-1.79,1.48-4.4,3.6
			l-1.63-2.11l7.15-5.52h2.59V589.11z"/>
	</g>
</g>
<g>
</g>
<g>
</g>
<g>
</g>
<g>
</g>
<g>
</g>
<g>
</g>
</svg>
