<svg xmlns="http://www.w3.org/2000/svg" viewBox="0 0 42.71 42.71"><defs><style>.cls-1{fill:#fff;}.cls-2{fill:#1d1d1b;}</style></defs><g id="Layer_2" data-name="Layer 2"><g id="Layer_1-2" data-name="Layer 1"><circle class="cls-1" cx="21.36" cy="21.36" r="21.36"/><g id="Shopping_Cart-2" data-name="Shopping Cart-2"><path id="Path_2899" data-name="Path 2899" class="cls-2" d="M16.29,29a2.29,2.29,0,1,0,2.36,2.28A2.32,2.32,0,0,0,16.3,29Z"/><path id="Path_2900" data-name="Path 2900" class="cls-2" d="M17.58,23.33h8.79a2.39,2.39,0,0,0,2.06-1.18l4.22-7.41a1.08,1.08,0,0,0,.15-.55,1.16,1.16,0,0,0-1.18-1.14H14.18l-1.12-2.29H9.2v2.29h2.36l4.24,8.66-1.59,2.8a2.36,2.36,0,0,0-.28,1.1,2.32,2.32,0,0,0,2.35,2.29H30.44V25.61H16.78a.28.28,0,0,1-.29-.28h0a.32.32,0,0,1,0-.14Z"/><path id="Path_2901" data-name="Path 2901" class="cls-2" d="M28.08,29a2.29,2.29,0,1,0,2.36,2.28A2.29,2.29,0,0,0,28.08,29Z"/></g></g></g></svg>