<svg xmlns="http://www.w3.org/2000/svg" viewBox="0 0 42.71 42.71"><defs><style>.cls-1{fill:#fff;}.cls-2{fill:none;stroke:#1d1d1b;stroke-linecap:round;stroke-linejoin:round;stroke-width:2px;}</style></defs><g id="Layer_2" data-name="Layer 2"><g id="Layer_1-2" data-name="Layer 1"><circle class="cls-1" cx="21.36" cy="21.36" r="21.36"/><g id="Instagram"><path id="Path_2875" data-name="Path 2875" class="cls-2" d="M15.49,9.61H27.23a5.87,5.87,0,0,1,5.87,5.88h0V27.23a5.87,5.87,0,0,1-5.87,5.87H15.49a5.87,5.87,0,0,1-5.88-5.87h0V15.49A5.88,5.88,0,0,1,15.49,9.61Z"/><path id="Path_2876" data-name="Path 2876" class="cls-2" d="M26.05,20.62a4.7,4.7,0,1,1-5.33-4,4.56,4.56,0,0,1,1.38,0A4.69,4.69,0,0,1,26.05,20.62Z"/><path id="Path_2877" data-name="Path 2877" class="cls-2" d="M27.81,14.9h0"/></g></g></g></svg>