<svg xmlns="http://www.w3.org/2000/svg" viewBox="0 0 42.71 42.71"><defs><style>.cls-1{fill:#fff;}.cls-2{fill:#1d1d1b;}</style></defs><g id="Layer_2" data-name="Layer 2"><g id="Layer_1-2" data-name="Layer 1"><circle class="cls-1" cx="21.36" cy="21.36" r="21.36"/><path id="Twitter" class="cls-2" d="M35.23,13.44a11.21,11.21,0,0,1-3.23.88,5.61,5.61,0,0,0,2.48-3.1,11.37,11.37,0,0,1-3.57,1.36,5.62,5.62,0,0,0-9.73,3.84,6.14,6.14,0,0,0,.14,1.29A16,16,0,0,1,9.73,11.82a5.65,5.65,0,0,0,1.75,7.52,5.57,5.57,0,0,1-2.55-.7v.07a5.62,5.62,0,0,0,4.51,5.51,5.68,5.68,0,0,1-1.48.2,5.36,5.36,0,0,1-1.06-.1,5.65,5.65,0,0,0,5.26,3.91,11.37,11.37,0,0,1-7,2.41,10.2,10.2,0,0,1-1.35-.09,15.79,15.79,0,0,0,8.61,2.55c10.36,0,16-8.58,16-16,0-.25,0-.49,0-.73A11.23,11.23,0,0,0,35.23,13.44Z"/></g></g></svg>